<svg width="" height="" viewBox="0 0 30 30" fill="none" xmlns="http://www.w3.org/2000/svg">
<path d="M1.25 27.7002H23.75C24.0285 27.7002 24.2953 27.8109 24.4922 28.0078C24.6891 28.2047 24.7998 28.4715 24.7998 28.75C24.7998 29.0285 24.6891 29.2953 24.4922 29.4922C24.2953 29.6891 24.0285 29.7998 23.75 29.7998H1.25C0.971522 29.7998 0.704725 29.6891 0.507812 29.4922C0.3109 29.2953 0.200195 29.0285 0.200195 28.75C0.200195 28.4715 0.3109 28.2047 0.507812 28.0078C0.704725 27.8109 0.971522 27.7002 1.25 27.7002ZM21.2451 7.7002L21.4561 7.71191C21.948 7.75322 22.4275 7.89276 22.8652 8.12402C23.3654 8.3883 23.7979 8.76483 24.1289 9.22363C24.4599 9.68257 24.6805 10.2123 24.7734 10.7705C24.8663 11.3284 24.8294 11.9002 24.665 12.4414L24.5869 12.7002H25.0059C26.7644 12.6458 27.9824 13.146 28.7422 13.8994C29.5027 14.6537 29.8273 15.6835 29.7568 16.7344C29.6156 18.84 27.8929 20.9938 24.9961 21.0498H21.8008L21.7412 21.1377C20.9637 22.2772 19.9169 23.2069 18.6943 23.8457C17.4716 24.4846 16.11 24.8124 14.7305 24.7998H10.2686C8.86633 24.8132 7.48216 24.475 6.24414 23.8164C5.0079 23.1587 3.95577 22.2023 3.18359 21.0342C2.31244 19.6382 0.805529 16.3703 0.363281 13.4053C0.141894 11.9208 0.192453 10.5434 0.692383 9.51758C1.18193 8.51314 2.11736 7.81456 3.75293 7.7002H21.2451ZM3.75 9.7998C3.30281 9.7998 2.95848 9.96621 2.72266 10.2705C2.49472 10.5647 2.38365 10.9681 2.3457 11.4189C2.26983 12.3209 2.48152 13.51 2.80566 14.6963C3.13131 15.888 3.57681 17.099 3.9834 18.0527C4.18661 18.5294 4.38077 18.9441 4.54688 19.2617C4.62989 19.4204 4.70716 19.5574 4.77539 19.666C4.83213 19.7563 4.89041 19.8354 4.94434 19.8936C5.5269 20.7677 6.31879 21.4825 7.24805 21.9727C8.17873 22.4635 9.21744 22.7129 10.2695 22.6992V22.7002H14.7373C17.684 22.5786 19.5057 21.0864 20.6689 18.957C21.8238 16.8428 22.3336 14.0948 22.6855 11.4326L22.6865 11.4277C22.7088 11.2194 22.686 11.0087 22.6211 10.8096C22.5561 10.6104 22.4494 10.4266 22.3086 10.2715C22.1756 10.123 22.0131 10.0041 21.8311 9.92285C21.6483 9.8414 21.45 9.79925 21.25 9.7998H3.75ZM26.6426 15.0547C26.0129 14.8158 25.1854 14.7491 24.4141 14.8008L24.2637 14.8105L24.2324 14.957C23.9557 16.2293 23.5598 17.4734 23.0508 18.6719L22.9326 18.9502H25V18.9492C25.685 18.9556 26.3466 18.7005 26.8486 18.2344C27.35 17.7688 27.6533 17.1289 27.6982 16.4463L27.6992 16.4473C27.7318 16.1034 27.6302 15.8105 27.4316 15.5742C27.2374 15.343 26.958 15.1744 26.6426 15.0547ZM7.53125 0.200195C7.80973 0.200195 8.07652 0.310899 8.27344 0.507812C8.47035 0.704726 8.58105 0.971523 8.58105 1.25V3.75C8.58105 4.02848 8.47035 4.29527 8.27344 4.49219C8.07652 4.6891 7.80973 4.7998 7.53125 4.7998C7.25277 4.7998 6.98598 4.6891 6.78906 4.49219C6.59215 4.29527 6.48145 4.02848 6.48145 3.75V1.25C6.48145 0.971523 6.59215 0.704726 6.78906 0.507812C6.98598 0.310899 7.25277 0.200195 7.53125 0.200195ZM12.5312 0.200195C12.8097 0.200195 13.0765 0.3109 13.2734 0.507812C13.4704 0.704725 13.5811 0.971522 13.5811 1.25V3.75C13.5811 4.02848 13.4704 4.29527 13.2734 4.49219C13.0765 4.6891 12.8097 4.7998 12.5312 4.7998C12.2528 4.7998 11.986 4.6891 11.7891 4.49219C11.5921 4.29527 11.4814 4.02848 11.4814 3.75V1.25C11.4814 0.971523 11.5921 0.704726 11.7891 0.507812C11.986 0.310899 12.2528 0.200195 12.5312 0.200195ZM17.5312 0.200195C17.8097 0.200195 18.0765 0.3109 18.2734 0.507812C18.4704 0.704725 18.5811 0.971522 18.5811 1.25V3.75C18.5811 4.02848 18.4704 4.29527 18.2734 4.49219C18.0765 4.6891 17.8097 4.7998 17.5312 4.7998C17.2528 4.7998 16.986 4.6891 16.7891 4.49219C16.5921 4.29527 16.4814 4.02848 16.4814 3.75V1.25C16.4814 0.971522 16.5921 0.704725 16.7891 0.507812C16.986 0.3109 17.2528 0.200195 17.5312 0.200195Z" fill="#B8A893" stroke="#FAFBF0" stroke-width="0.4"/>
</svg>
