<svg width="" height="" viewBox="0 0 30 26" fill="none" xmlns="http://www.w3.org/2000/svg">
<path d="M26.25 0.199951H3.75C1.6825 0.199951 0 1.88245 0 3.94995V25.2H2.5V21.45H27.5V25.2H30V3.94995C30 1.88245 28.3175 0.199951 26.25 0.199951ZM3.75 2.69995H26.25C26.94 2.69995 27.5 3.2612 27.5 3.94995V13.95H25V12.7C25 10.6325 23.3175 8.94995 21.25 8.94995H17.5C16.54 8.94995 15.6637 9.31245 15 9.90745C14.3363 9.31245 13.46 8.94995 12.5 8.94995H8.75C6.6825 8.94995 5 10.6325 5 12.7V13.95H2.5V3.94995C2.5 3.2612 3.06125 2.69995 3.75 2.69995ZM13.75 13.95H7.5V12.7C7.5 12.0112 8.06125 11.45 8.75 11.45H12.5C13.1888 11.45 13.75 12.0112 13.75 12.7V13.95ZM16.25 12.7C16.25 12.0112 16.81 11.45 17.5 11.45H21.25C21.94 11.45 22.5 12.0112 22.5 12.7V13.95H16.25V12.7ZM2.5 18.95V16.45H27.5V18.95H2.5Z" fill="#B8A893" stroke="white" stroke-width="0.4"/>
</svg>
