<svg width="" height="" viewBox="0 0 28 31" fill="none" xmlns="http://www.w3.org/2000/svg">
<path d="M27.5 14.05C27.5 11.2925 25.2575 9.05005 22.5 9.05005V6.55005C22.5 3.1038 19.6963 0.300049 16.25 0.300049H11.25C7.80375 0.300049 5 3.1038 5 6.55005V9.05005C2.2425 9.05005 0 11.2925 0 14.05V20.3C0 20.3213 5.83241e-08 20.3438 0.00125006 20.365C0.0362501 22.4025 1.70375 24.05 3.75 24.05H12.5V27.8H7.5C6.81 27.8 6.25 28.3588 6.25 29.05C6.25 29.7413 6.81 30.3 7.5 30.3H20C20.69 30.3 21.25 29.7413 21.25 29.05C21.25 28.3588 20.69 27.8 20 27.8H15V24.05H23.75C25.7962 24.05 27.4638 22.4025 27.4988 20.365C27.4988 20.3438 27.5 20.3225 27.5 20.3V14.05ZM25 14.05V16.765C24.6087 16.6263 24.1887 16.55 23.75 16.55H22.5V11.55C23.8787 11.55 25 12.6713 25 14.05ZM7.5 6.55005C7.5 4.48255 9.1825 2.80005 11.25 2.80005H16.25C18.3175 2.80005 20 4.48255 20 6.55005V16.55H7.5V6.55005ZM5 11.55V16.55H3.75C3.31125 16.55 2.89125 16.6263 2.5 16.765V14.05C2.5 12.6713 3.62125 11.55 5 11.55ZM23.75 21.55H3.75C3.06125 21.55 2.5 20.99 2.5 20.3C2.5 19.61 3.06125 19.05 3.75 19.05H23.75C24.4387 19.05 25 19.61 25 20.3C25 20.99 24.4387 21.55 23.75 21.55Z" fill="#B8A893" stroke="#FAFBF0" stroke-width="0.6"/>
</svg>
