<svg width="" height="" viewBox="0 0 28 28" fill="none" xmlns="http://www.w3.org/2000/svg">
<path d="M8.75 18.9502C9.32928 18.9502 9.79883 19.4202 9.79883 20V23.75C9.79883 24.8024 9.40763 25.6854 8.74219 26.3066C8.07579 26.9288 7.12169 27.2997 5.97656 27.2998C3.69225 27.2998 2.07422 25.7955 2.07422 23.75C2.07422 22.4296 2.72248 21.1419 3.75977 20.3945L3.75879 20.3936C4.22936 20.0556 4.88659 20.1628 5.22559 20.6318C5.5647 21.1023 5.45838 21.7585 4.98828 22.0977H4.9873C4.49533 22.4543 4.1748 23.1158 4.1748 23.75C4.1748 24.2819 4.41931 24.6555 4.77637 24.8877C5.12328 25.1131 5.56653 25.2002 5.97754 25.2002C6.21757 25.2002 6.63734 25.169 7.00391 24.9746C7.19017 24.8758 7.367 24.7325 7.49609 24.5273C7.62553 24.3215 7.7002 24.0645 7.7002 23.75V20C7.7002 19.4205 8.17046 18.9502 8.75 18.9502ZM13.75 18.9502C14.3295 18.9502 14.7998 19.4205 14.7998 20V26.25C14.7998 26.8295 14.3295 27.2998 13.75 27.2998C13.1705 27.2998 12.7002 26.8295 12.7002 26.25V20C12.7002 19.4205 13.1705 18.9502 13.75 18.9502ZM18.749 18.9502C19.3284 18.9503 19.7988 19.4205 19.7988 20V23.75C19.7988 24.0645 19.8734 24.3215 20.0029 24.5273C20.132 24.7325 20.3089 24.8758 20.4951 24.9746C20.8616 25.1689 21.2815 25.2002 21.5215 25.2002C21.9324 25.2002 22.3748 25.113 22.7217 24.8877C23.079 24.6556 23.3242 24.2821 23.3242 23.75C23.3242 23.115 23.0047 22.4534 22.5107 22.0977C22.0406 21.7587 21.9336 21.1023 22.2725 20.6318L22.2734 20.6328C22.6138 20.1633 23.2688 20.0567 23.7393 20.3945C24.7764 21.1418 25.4238 22.4294 25.4238 23.75C25.4238 25.7952 23.7972 27.2997 21.5215 27.2998C20.3807 27.2998 19.4255 26.929 18.7578 26.3066C18.0914 25.6852 17.6992 24.8019 17.6992 23.75V20C17.6992 19.4205 18.1695 18.9502 18.749 18.9502ZM13.75 0.200195C19.7246 0.200195 24.773 1.02019 24.9824 1.05469C25.3078 1.10822 25.5897 1.31234 25.7432 1.60449V1.60547C25.8035 1.71932 27.2998 4.62913 27.2998 8.55664C27.2997 12.4515 25.8044 15.3898 25.7451 15.5039V15.5049C25.5857 15.8143 25.2821 16.0244 24.9355 16.0654C24.7263 16.09 19.7012 16.6748 13.75 16.6748C7.79879 16.6748 2.77228 16.09 2.56445 16.0654C2.22031 16.0244 1.91751 15.8153 1.75684 15.5088V15.5078C1.69498 15.3899 0.200295 12.4812 0.200195 8.55664C0.200195 5.14741 1.34529 2.47044 1.6709 1.7793L1.75488 1.6084C1.90719 1.31429 2.19022 1.1082 2.51758 1.05469C2.73125 1.01971 7.77721 0.200195 13.75 0.200195ZM13.751 2.29883C9.19169 2.29885 5.0826 2.80797 3.52441 3.02734L3.41016 3.04297L3.36719 3.15039C2.98579 4.09569 2.30078 6.11392 2.30078 8.55664C2.30085 10.9986 2.96516 12.9841 3.34961 13.9307L3.39551 14.042L3.51465 14.0537C5.10281 14.2128 9.21045 14.5752 13.751 14.5752C18.2916 14.5752 22.3881 14.2128 23.9824 14.0537L24.1025 14.042L24.1484 13.9297C24.5338 12.9715 25.2011 10.9612 25.2012 8.55664C25.2012 6.10652 24.5194 4.08908 24.1377 3.14941L24.0947 3.04297L23.9805 3.02734L23.2812 2.93262C21.3897 2.68825 17.7402 2.29883 13.751 2.29883ZM7.5 8.9502H20C20.5795 8.9502 21.0498 9.42046 21.0498 10C21.0498 10.5795 20.5795 11.0498 20 11.0498H7.5C6.92046 11.0498 6.4502 10.5795 6.4502 10C6.4502 9.42046 6.92046 8.9502 7.5 8.9502Z" fill="#B8A893" stroke="#FAFBF0" stroke-width="0.4"/>
</svg>
