<svg width="" height="" viewBox="0 0 30 25" fill="none" xmlns="http://www.w3.org/2000/svg">
<path d="M30 20.2V3.94995C30 2.95539 29.6049 2.00156 28.9017 1.2983C28.1984 0.595039 27.2446 0.199951 26.25 0.199951H3.75C2.75544 0.199951 1.80161 0.595039 1.09835 1.2983C0.395088 2.00156 0 2.95539 0 3.94995L0 20.2H13.75V21.45H8.75V23.95H21.25V21.45H16.25V20.2H30ZM2.5 3.94995C2.5 3.61843 2.6317 3.30049 2.86612 3.06607C3.10054 2.83165 3.41848 2.69995 3.75 2.69995H26.25C26.5815 2.69995 26.8995 2.83165 27.1339 3.06607C27.3683 3.30049 27.5 3.61843 27.5 3.94995V17.7H2.5V3.94995Z" fill="#B8A893" stroke="#FAFBF0" stroke-width="0.4"/>
</svg>
