<svg width="" height="" viewBox="0 0 30 30" fill="none" xmlns="http://www.w3.org/2000/svg">
<path d="M8.75 0.200195C12.3415 0.200195 17.296 1.82917 21.0498 3.30469L21.1094 3.32812L21.1709 3.3125L29.7998 1.1543V16.3936L21.1689 13.9102L21.1035 13.8916L21.04 13.917C18.4385 14.9524 16.1093 15.8038 14.0439 16.3936L13.8281 16.4561L13.9141 16.6631L16.9775 24.0156L16.9795 24.0195C17.8835 26.0679 16.8174 28.6563 14.7334 29.4736L14.7256 29.4766C12.6771 30.3795 10.0887 29.3133 9.27148 27.2305L9.27051 27.2285L4.84375 16.4014L4.81641 16.335L4.75293 16.3008L4.50195 16.1621C1.93406 14.6848 0.200295 11.9171 0.200195 8.74902C0.200195 4.03575 4.03544 0.200195 8.75 0.200195ZM11.6025 16.9873C10.5717 17.1858 9.61715 17.2988 8.75 17.2988C8.42188 17.2988 8.09719 17.2761 7.77539 17.2393L7.43945 17.2002L7.56738 17.5137L11.2119 26.4258C11.6175 27.4591 12.8983 27.9831 13.917 27.5381L13.918 27.5391C14.9611 27.1293 15.4896 25.8493 15.0391 24.8232H15.04L11.8242 17.1064L11.7617 16.957L11.6025 16.9873ZM27.4512 3.90625L22.4512 5.15625L22.2998 5.19336V12.0488L22.4443 12.0908L27.4443 13.5293L27.7002 13.6035V3.84375L27.4512 3.90625ZM20.2002 5.22168L20.0723 5.17285C15.2678 3.29861 11.3615 2.2998 8.75 2.2998C5.19354 2.2998 2.30004 5.19046 2.2998 8.74707C2.2998 12.3038 5.19329 15.1973 8.75 15.1973C10.2018 15.1973 11.9845 14.8231 13.9209 14.2451C15.8603 13.6662 17.9689 12.878 20.0742 12.043L20.2002 11.9932V5.22168Z" fill="#B8A893" stroke="#FAFBF0" stroke-width="0.4"/>
</svg>
