<svg width="" height="" viewBox="0 0 30 31" fill="none" xmlns="http://www.w3.org/2000/svg">
<path d="M21.25 17.8V9.05005H30V6.55005H27.5V4.67505C27.5 2.26255 25.5375 0.300049 23.125 0.300049H6.25C4.1825 0.300049 2.5 1.98255 2.5 4.05005V6.55005H0V9.05005H2.5V17.8H8.75V30.3H27.5V11.55H25V22.8H11.25V17.8H21.25ZM25 25.3V27.8H11.25V25.3H25ZM23.125 2.80005C24.1588 2.80005 25 3.6413 25 4.67505V6.55005H21.25V4.67505C21.25 3.6413 22.0912 2.80005 23.125 2.80005ZM5 4.05005C5 3.3613 5.56125 2.80005 6.25 2.80005H19.1725C18.9025 3.3688 18.75 4.0038 18.75 4.67505V15.3H5V4.05005Z" fill="#B8A893" stroke="#FAFBF0" stroke-width="0.6"/>
</svg>
