<svg width="" height="" viewBox="0 0 29 23" fill="none" xmlns="http://www.w3.org/2000/svg">
<path d="M16.6375 20C16.6375 21.375 15.5125 22.5 14.1375 22.5C12.7625 22.5 11.6375 21.375 11.6375 20C11.6375 18.625 12.7625 17.5 14.1375 17.5C15.5125 17.5 16.6375 18.625 16.6375 20ZM6.1875 12.05L7.95 13.8125C11.3625 10.4 16.9125 10.4 20.325 13.8125L22.0875 12.05C17.7 7.6625 10.5625 7.6625 6.175 12.05H6.1875ZM14.1375 0C8.8 0 3.775 2.075 0 5.8625L1.7625 7.625C5.0625 4.325 9.4625 2.5 14.1375 2.5C18.8125 2.5 23.2 4.325 26.5125 7.625L28.275 5.8625C24.5 2.0875 19.475 0 14.1375 0Z" fill="#B8A893"/>
</svg>
