<svg width="" height="" viewBox="0 0 30 31" fill="none" xmlns="http://www.w3.org/2000/svg">
<path d="M14.3782 4.57477V0.824925C14.3782 0.47994 14.6582 0.199951 15.0032 0.199951C15.3482 0.199951 15.6281 0.47994 15.6281 0.824925V4.57477C15.6281 4.91975 15.3482 5.19974 15.0032 5.19974C14.6582 5.19974 14.3782 4.91975 14.3782 4.57477ZM19.0565 5.111C19.1565 5.17099 19.2678 5.19974 19.3778 5.19974C19.589 5.19974 19.7965 5.09225 19.914 4.89601L21.7888 1.77114C21.9675 1.4749 21.87 1.09116 21.5738 0.913671C21.2826 0.738679 20.8951 0.832425 20.7164 1.12741L18.8416 4.25228C18.6628 4.54852 18.7603 4.9335 19.0565 5.111ZM10.0924 4.89726C10.2099 5.09225 10.4174 5.20099 10.6286 5.20099C10.7386 5.20099 10.8498 5.17224 10.9498 5.11225C11.246 4.93475 11.3423 4.55102 11.1648 4.25478L9.28998 1.12991C9.1125 0.833675 8.72628 0.739929 8.43256 0.916171C8.13634 1.09366 8.0401 1.4774 8.21758 1.77364L10.0924 4.89851V4.89726ZM29.5743 28.2925L23.9498 30.1675C23.8836 30.19 23.8186 30.1999 23.7523 30.1999C23.4911 30.1999 23.2474 30.035 23.1587 29.7725C23.0499 29.445 23.2274 29.0912 23.5536 28.9825L25.7047 28.265L24.1511 23.7827C23.6836 23.8952 23.2112 23.9515 22.7399 23.9515C21.7213 23.9515 20.7139 23.689 19.8002 23.174C18.4041 22.3865 17.3992 21.1016 16.9692 19.5579L15.0007 13.6194L13.0234 19.5866C12.6022 21.1016 11.5973 22.3853 10.2011 23.174C9.28873 23.689 8.28133 23.9515 7.26143 23.9515C6.79022 23.9515 6.31777 23.8952 5.85031 23.7827L4.29671 28.265L6.44775 28.9825C6.77522 29.0912 6.95146 29.445 6.84272 29.7725C6.75522 30.0337 6.51025 30.1999 6.24902 30.1999C6.18278 30.1999 6.11778 30.19 6.05154 30.1675L0.427079 28.2925C0.0996105 28.1838 -0.0766226 27.83 0.032117 27.5026C0.142106 27.1751 0.495823 27.0013 0.823291 27.1076L3.11057 27.87L4.67167 23.3677C3.56178 22.8428 2.64312 21.989 2.02818 20.8978C1.2395 19.5016 1.04327 17.883 1.47448 16.3393L3.97174 8.78959C4.48419 7.09466 6.30652 6.09471 8.02635 6.57344L13.2021 8.01463C13.9383 8.21962 14.5645 8.6596 15.0007 9.27082C15.4381 8.66085 16.0631 8.21962 16.798 8.01463L21.9763 6.57344C23.7011 6.09221 25.5184 7.09466 26.0346 8.80584L28.5181 16.3105C28.9581 17.883 28.7606 19.5016 27.9719 20.8978C27.357 21.989 26.4371 22.8415 25.3284 23.3677L26.8895 27.87L29.1768 27.1076C29.5055 27.0001 29.858 27.1751 29.968 27.5026C30.0767 27.83 29.8993 28.1838 29.573 28.2925H29.5743ZM13.5771 13.9506H3.58178L2.67061 16.703C2.33815 17.8967 2.49438 19.1779 3.11682 20.2829C3.74051 21.3878 4.75667 22.184 5.97905 22.524C7.20393 22.864 8.48381 22.7078 9.5887 22.084C10.6936 21.4603 11.4898 20.4441 11.8297 19.2217L13.5758 13.9494L13.5771 13.9506ZM14.3782 11.1682C14.3707 10.8433 14.2858 10.5095 14.122 10.2133C13.852 9.72205 13.4071 9.36957 12.8671 9.21957L7.69138 7.77839C7.5089 7.72714 7.32517 7.70339 7.14394 7.70339C6.25652 7.70339 5.43035 8.28336 5.16288 9.16708L3.99424 12.7007H13.9895L14.292 11.787C14.347 11.607 14.3745 11.3557 14.377 11.1682H14.3782ZM16.0143 12.7007H26.0096L24.8447 9.18333C24.5735 8.28586 23.7449 7.70339 22.8574 7.70339C22.6762 7.70339 22.4937 7.72714 22.3125 7.77839L17.1342 9.21957C16.5955 9.37082 16.1506 9.7233 15.8806 10.2133C15.7181 10.5095 15.6331 10.8333 15.6256 11.162C15.6281 11.3532 15.6569 11.6145 15.7144 11.8032L16.0118 12.7019L16.0143 12.7007ZM26.887 20.2829C27.5095 19.1779 27.6657 17.8955 27.3258 16.6743L26.4246 13.9506H16.4293L18.1666 19.1942C18.5154 20.4454 19.3115 21.4616 20.4164 22.0853C21.5213 22.709 22.8012 22.8653 24.0261 22.5253C25.2485 22.1853 26.2646 21.3878 26.8883 20.2841L26.887 20.2829Z" fill="#B8A893" stroke="#B8A893" stroke-width="0.4"/>
</svg>
