<svg width="60" height="57" viewBox="0 0 60 57" fill="none" xmlns="http://www.w3.org/2000/svg">
<path d="M50.69 34.6526C58.89 31.9926 59.06 22.1626 59.06 21.7526C59.06 21.5362 58.9898 21.3257 58.86 21.1526C58.62 20.8126 52.71 12.9626 44.51 15.6326C42.2484 16.3954 40.132 17.5347 38.25 19.0026C39.0718 16.7591 39.5047 14.3917 39.53 12.0026C39.53 3.38258 30.24 0.182582 29.85 0.0525825C29.6424 -0.0175275 29.4176 -0.0175275 29.21 0.0525825C28.82 0.182582 19.53 3.38258 19.53 12.0526C19.5579 14.4415 19.9907 16.8084 20.81 19.0526C18.9251 17.5657 16.8017 16.4093 14.53 15.6326C6.34 12.9626 0.44 20.8126 0.2 21.1526C0.0701779 21.3257 0 21.5362 0 21.7526C0 22.1626 0.17 31.9926 8.37 34.6526C10.6484 35.37 13.033 35.6913 15.42 35.6026C13.4374 36.9314 11.6957 38.5885 10.27 40.5026C5.2 47.5026 10.84 55.5026 11.09 55.8626C11.2105 56.0427 11.3914 56.1739 11.6 56.2326C13.2029 56.6915 14.8628 56.9204 16.53 56.9126C23.63 56.9126 27.53 52.6626 29.53 45.9126C31.58 52.7026 35.46 56.9126 42.53 56.9126C44.1944 56.9162 45.8508 56.6839 47.45 56.2226C47.6586 56.1639 47.8395 56.0327 47.96 55.8526C48.21 55.5126 53.85 47.4726 48.78 40.4926C47.3522 38.5838 45.6149 36.9275 43.64 35.5926C46.0264 35.6824 48.4105 35.3645 50.69 34.6526ZM29.53 2.08258C31.05 2.68258 37.53 5.63258 37.53 12.0126C37.53 17.7826 34.27 23.7726 30.65 28.2326C30.47 28.1626 30.53 29.1326 30.53 17.0126C30.53 16.4603 30.0823 16.0126 29.53 16.0126C28.9777 16.0126 28.53 16.4603 28.53 17.0126V27.4326C27.3164 25.62 25.9551 23.9109 24.46 22.3226C22.6521 19.1784 21.6459 15.6376 21.53 12.0126C21.53 5.65258 28.01 2.69258 29.53 2.08258ZM8.99 32.7526C2.94 30.7526 2.12 23.7026 1.99 22.0726C2.99 20.8126 7.83 15.5626 13.9 17.5326C19.4 19.3226 24.08 24.2626 27.2 29.1026C27.1 29.2326 27.96 29.4426 16.5 25.7326C15.9829 25.585 15.4417 25.8728 15.2749 26.384C15.1081 26.8952 15.3754 27.4468 15.88 27.6326L25.79 30.8526C23.6851 31.448 21.6344 32.2208 19.66 33.1626C16.1233 33.8997 12.4598 33.7589 8.99 32.7526ZM24.83 51.0826C21.1 56.2326 14.12 54.8226 12.53 54.4226C11.65 53.0326 8.15 46.8226 11.89 41.6826C15.25 37.0626 21.45 34.0726 27 32.6126C27.09 32.7526 27.55 32.0326 20.49 41.7526C20.2257 42.1989 20.3465 42.7732 20.7682 43.0752C21.19 43.3772 21.7726 43.3066 22.11 42.9126L28.24 34.4726C28.1544 36.6469 28.2514 38.8245 28.53 40.9826C28.1555 44.6045 26.8838 48.0759 24.83 51.0826ZM29.53 32.0126C28.9777 32.0126 28.53 31.5649 28.53 31.0126C28.53 30.4603 28.9777 30.0126 29.53 30.0126C30.0823 30.0126 30.53 30.4603 30.53 31.0126C30.53 31.5649 30.0823 32.0126 29.53 32.0126ZM47.17 41.6826C50.91 46.8226 47.41 53.0326 46.53 54.4226C44.94 54.8226 37.96 56.2326 34.23 51.0826C30.83 46.4026 29.96 39.6726 30.23 33.9126C30.39 33.9126 29.81 33.1426 36.91 42.9126C37.1026 43.2378 37.4622 43.4267 37.8393 43.4006C38.2164 43.3746 38.5466 43.1382 38.6927 42.7895C38.8388 42.4409 38.7759 42.0397 38.53 41.7526L32.43 33.3126C34.4969 34.079 36.6243 34.6711 38.79 35.0826C42.0791 36.5674 44.9557 38.8331 47.17 41.6826ZM32.53 31.2026C32.53 31.0326 31.78 31.3426 43.17 27.6326C43.6746 27.4468 43.9419 26.8952 43.7751 26.384C43.6083 25.8728 43.0671 25.585 42.55 25.7326L32.64 28.9126C33.9889 27.1917 35.193 25.3622 36.24 23.4426C38.6756 20.7661 41.7271 18.7238 45.13 17.4926C51.13 15.4926 56 20.7726 57.04 22.0326C56.94 23.6726 56.14 30.7426 50.04 32.7126C44.59 34.5426 37.93 33.3026 32.53 31.2026Z" fill="#185644" fill-opacity="0.8"/>
</svg>
