<svg width="32" height="32" viewBox="0 0 32 32" fill="none" xmlns="http://www.w3.org/2000/svg">
<path opacity="0.75" d="M20.6371 6.52071L19.2689 5.15085C18.6745 4.5558 18.8749 3.54696 19.6514 3.22493L21.0203 2.65716C21.7968 2.33513 22.6509 2.90658 22.6509 3.74815M20.6371 6.52071C21.3802 7.26461 22.6506 6.73771 22.6507 5.68553M20.6371 6.52071C21.3801 7.26473 20.8541 8.53642 19.8033 8.53654M22.6509 3.74815L22.6507 5.68553M22.6509 3.74815C22.6508 2.90658 23.5043 2.33507 24.2808 2.65716L25.6497 3.22492C26.4262 3.54696 26.6266 4.55579 26.0322 5.15084L24.6636 6.52032M22.6507 5.68553C22.6508 6.73765 23.9205 7.26423 24.6636 6.52032M17.8686 8.53672C17.0281 8.53678 16.4574 7.68157 16.779 6.90405L17.346 5.53328C17.6676 4.75576 18.6752 4.55517 19.2695 5.15028M26.0322 11.9218C26.6265 12.5168 26.4262 13.5257 25.6497 13.8477L24.2807 14.4155C23.582 14.7053 22.8206 14.2716 22.675 13.5688M23.6745 8.5374L27.4325 8.53674M23.6745 8.5374C24.0079 8.5374 24.2782 8.80763 24.2782 9.14101V9.65022C24.2782 12.7233 21.7869 15.2145 18.7138 15.2145H17.4062L17.219 15.9729C16.6753 18.1746 14.6999 19.7216 12.432 19.7216C10.1641 19.7216 8.18867 18.1746 7.64505 15.9729L7.45781 15.2145H6.15018C5.61079 15.2145 5.08926 15.1377 4.59604 14.9946M23.6745 8.5374L1.18956 8.53739C0.856179 8.53739 0.585938 8.80763 0.585938 9.14101V9.65022C0.585938 11.4296 1.42111 13.0138 2.72083 14.0324M27.4325 8.53674C28.273 8.53668 28.8437 9.3911 28.5221 10.1686L27.9551 11.5394C27.6334 12.3169 26.6259 12.5175 26.0316 11.9224L24.6636 10.5524C24.54 10.4286 24.4012 10.2903 24.2603 10.1456M27.4325 8.53674C28.273 8.5368 28.8438 7.68157 28.5221 6.90405L27.9551 5.53328C27.6334 4.75576 26.6259 4.55517 26.0317 5.15028M25.4977 8.53654C24.4469 8.53648 23.9206 7.26441 24.6636 6.52032M29.2834 12.8905C30.6475 10.7965 31.0126 8.09325 30.0317 5.612C28.4084 1.50593 23.7593 -0.484758 19.6769 1.16681C16.6068 2.40882 14.7352 5.35546 14.7107 8.47691M22.653 13.5904L22.6658 15.8639C22.6678 16.2124 22.965 16.4882 23.3119 16.4591C24.1299 16.3904 24.9517 16.1924 25.7503 15.8536C26.5611 15.5096 27.2859 15.0438 27.9122 14.4861M17.1811 11.2917H24.0216M0.842477 11.2917H15.0683M13.5185 22.4492V19.6M11.3455 19.6V25.3536C11.3455 26.8109 10.3041 28.0601 8.87047 28.3224L6.74228 28.7117C6.54157 28.7484 6.3958 28.9233 6.3958 29.1273V30.1634C6.3958 30.3968 6.58497 30.5859 6.81833 30.5859H18.0457C18.2791 30.5859 18.4682 30.3968 18.4682 30.1634V29.1273C18.4682 28.9233 18.3225 28.7485 18.1218 28.7117L15.9936 28.3224C14.56 28.0601 13.5185 26.8109 13.5185 25.3536V24.5722" stroke="#F9F9ED" stroke-width="1.17188" stroke-miterlimit="10" stroke-linecap="round" stroke-linejoin="round"/>
</svg>
