<svg width="60" height="60" viewBox="0 0 60 60" fill="none" xmlns="http://www.w3.org/2000/svg">
<mask id="mask0_1226_138" style="mask-type:luminance" maskUnits="userSpaceOnUse" x="0" y="0" width="60" height="60">
<path d="M0 0H60V60H0V0Z" fill="white"/>
</mask>
<g mask="url(#mask0_1226_138)">
<path d="M5.85937 33.6328C6.50625 33.6328 7.03125 34.1578 7.03125 34.8047C7.03125 35.4516 6.50625 35.9766 5.85937 35.9766C5.2125 35.9766 4.6875 35.4516 4.6875 34.8047C4.6875 34.1578 5.2125 33.6328 5.85937 33.6328Z" fill="#185644" fill-opacity="0.8"/>
<path d="M10.5469 48.8742C10.5434 50.1657 9.4957 51.2109 8.20312 51.2109H1.17188V30.1172H8.20312C9.49805 30.1172 10.5469 31.1661 10.5469 32.4609V48.8742Z" stroke="#185644" stroke-opacity="0.8" stroke-width="2.5" stroke-miterlimit="10" stroke-linecap="round" stroke-linejoin="round"/>
<path d="M39.8508 43.7519L54.2508 38.8021C55.7871 38.2477 57.607 38.7715 58.3828 40.207C59.4363 42.156 58.5141 44.3052 56.7246 45.0211L34.8281 54.6622C33.0375 55.4767 31.0934 55.8984 29.127 55.8984C26.6309 55.8984 24.1816 55.2199 22.0418 53.9355L15.9129 50.2583C14.4984 49.4098 12.191 48.9341 10.5469 48.8742" stroke="#185644" stroke-opacity="0.8" stroke-width="2.5" stroke-miterlimit="10" stroke-linecap="round" stroke-linejoin="round"/>
<path d="M10.5469 32.4609H19.8246C21.0328 32.4609 22.2199 32.7715 23.2723 33.3644L29.4644 36.8473C29.816 37.0453 30.2109 37.1484 30.6141 37.1484H38.2031C40.1449 37.1484 41.7187 38.7223 41.7187 40.6641C41.7187 41.9766 41.0004 43.1203 39.934 43.7238C39.423 44.0144 38.8324 44.1797 38.2031 44.1797H26.2898" stroke="#185644" stroke-opacity="0.8" stroke-width="2.5" stroke-miterlimit="10" stroke-linecap="round" stroke-linejoin="round"/>
<path d="M19.9163 9.72773C20.8654 6.48855 23.5644 4.08984 27.1525 4.08984C32.9322 4.08984 34.7579 10.6816 34.7579 10.6816C34.7579 10.6816 36.5837 4.08984 42.3646 4.08984C46.8669 4.08984 49.97 7.86914 49.97 12.3456C49.97 18.2695 44.3849 22.235 34.8986 30.457C29.1839 25.504 24.5486 22.0431 21.9182 18.5974" stroke="#185644" stroke-opacity="0.8" stroke-width="2.5" stroke-miterlimit="10" stroke-linecap="round" stroke-linejoin="round"/>
<path d="M19.8047 13.2422C20.4516 13.2422 20.9766 13.7672 20.9766 14.4141C20.9766 15.0609 20.4516 15.5859 19.8047 15.5859C19.1578 15.5859 18.6328 15.0609 18.6328 14.4141C18.6328 13.7672 19.1578 13.2422 19.8047 13.2422Z" fill="#185644" fill-opacity="0.8"/>
</g>
</svg>
