<svg width="32" height="27" viewBox="0 0 32 27" fill="none" xmlns="http://www.w3.org/2000/svg">
<path opacity="0.75" d="M28.025 23.7016V24.9578C28.025 25.3047 27.752 25.5859 27.4152 25.5859H24.806C24.5435 25.5859 24.3105 25.413 24.2275 25.1565L23.7568 23.7016M3.14685 23.7016V24.9578C3.14685 25.3047 3.41987 25.5859 3.75663 25.5859H6.3659C6.62836 25.5859 6.86136 25.413 6.94435 25.1565L7.41512 23.7016M12.964 12.1432C12.964 14.2246 11.326 15.9119 9.30548 15.9119M12.964 12.1432C12.964 10.0618 11.326 8.37447 9.30548 8.37447M12.964 12.1432L11.1347 12.1432M9.30548 15.9119C7.28492 15.9119 5.64693 14.2246 5.64693 12.1432M9.30548 15.9119L9.30546 14.0275M5.64693 12.1432C5.64693 10.0618 7.28492 8.37447 9.30548 8.37447M5.64693 12.1432L7.47619 12.1432M9.30548 8.37447L9.30546 10.2588M11.1347 12.1432C11.1347 13.1839 10.3157 14.0275 9.30546 14.0275M11.1347 12.1432C11.1347 11.1025 10.3157 10.2588 9.30546 10.2588M9.30546 14.0275C8.29518 14.0275 7.47619 13.1839 7.47619 12.1432M7.47619 12.1432C7.47619 11.1025 8.29518 10.2588 9.30546 10.2588M6.71859 9.47836L8.01203 10.8107M6.71859 14.8081L8.01203 13.4756M11.8925 14.8081L10.599 13.4756M11.8925 9.47836L10.599 10.8107M24.4301 10.2591H23.9423M22.113 10.2591H21.6252M19.7959 10.2591H19.3081M24.4301 12.7716H23.9423M22.113 12.7716H21.6252M19.7959 12.7716H19.3081M24.4301 15.284H23.9423M22.113 15.284H21.6252M19.7959 15.284H19.3081M24.4301 17.7962H23.9423M22.113 17.7962H21.6252M19.7959 17.7962H19.3081M15.5859 8.37447V15.9119M27.8421 14.0275V10.2588M22.6792 3.09862H27.2323C27.5691 3.09862 27.842 3.37967 27.842 3.72663V6.48989M9.77971 21.1879H3.63484C3.29802 21.1879 3.02518 20.9068 3.02518 20.5599V3.72663C3.02518 3.37967 3.29802 3.09862 3.63484 3.09862H20.5664M27.8418 17.796V20.5598C27.8418 20.9068 27.569 21.1879 27.2321 21.1879H11.8923M8.01169 0.585938H28.757C29.7668 0.585938 30.5859 1.42971 30.5859 2.46998V21.8159C30.5859 22.8568 29.7668 23.7005 28.757 23.7005H2.41491C1.40505 23.7005 0.585938 22.8568 0.585938 21.8159V2.46998C0.585938 1.42971 1.40505 0.585938 2.41491 0.585938H5.89902M24.4273 8.37447H19.3054V6.49012L24.4273 6.49012V8.37447ZM28.2689 10.2588H27.4152C27.1458 10.2588 26.9274 10.0339 26.9274 9.75636V6.99267C26.9274 6.71516 27.1458 6.4902 27.4152 6.4902H28.2689C28.5383 6.4902 28.7566 6.71516 28.7566 6.99267V9.75636C28.7566 10.0339 28.5383 10.2588 28.2689 10.2588ZM28.2689 14.0275H27.4152C27.1458 14.0275 26.9274 14.2525 26.9274 14.53V17.2937C26.9274 17.5712 27.1458 17.7962 27.4152 17.7962H28.2689C28.5383 17.7962 28.7566 17.5712 28.7566 17.2937V14.53C28.7566 14.2525 28.5383 14.0275 28.2689 14.0275Z" stroke="#F9F9ED" stroke-width="1.17188" stroke-miterlimit="10" stroke-linecap="round" stroke-linejoin="round"/>
</svg>
